<mxfile host="app.diagrams.net" modified="2024-04-12T12:30:20.965Z" agent="Mozilla/5.0 (X11; Linux x86_64) AppleWebKit/537.36 (KHTML, like Gecko) Chrome/122.0.0.0 Safari/537.36" etag="-Wj5yuQr_cYiAYDFRx99" version="24.2.3" type="device">
  <diagram name="Page-1" id="500276iL2wZ_J5d49-Vi">
    <mxGraphModel dx="2049" dy="2305" grid="1" gridSize="10" guides="1" tooltips="1" connect="1" arrows="1" fold="1" page="1" pageScale="1" pageWidth="827" pageHeight="1169" math="0" shadow="0">
      <root>
        <mxCell id="0" />
        <mxCell id="1" parent="0" />
        <mxCell id="bKxKG5AwFMQWj7qYAq5b-5" style="edgeStyle=orthogonalEdgeStyle;rounded=0;orthogonalLoop=1;jettySize=auto;html=1;startArrow=classic;startFill=1;entryX=0;entryY=0.5;entryDx=0;entryDy=0;" edge="1" parent="1" source="bKxKG5AwFMQWj7qYAq5b-1" target="bKxKG5AwFMQWj7qYAq5b-19">
          <mxGeometry relative="1" as="geometry">
            <mxPoint x="390" y="180" as="targetPoint" />
          </mxGeometry>
        </mxCell>
        <mxCell id="bKxKG5AwFMQWj7qYAq5b-6" value="Sockets" style="edgeLabel;html=1;align=center;verticalAlign=middle;resizable=0;points=[];" vertex="1" connectable="0" parent="bKxKG5AwFMQWj7qYAq5b-5">
          <mxGeometry x="0.0167" y="-2" relative="1" as="geometry">
            <mxPoint x="-1" y="-1" as="offset" />
          </mxGeometry>
        </mxCell>
        <mxCell id="bKxKG5AwFMQWj7qYAq5b-1" value="Client (browser)" style="ellipse;whiteSpace=wrap;html=1;" vertex="1" parent="1">
          <mxGeometry x="80" y="120" width="120" height="120" as="geometry" />
        </mxCell>
        <mxCell id="bKxKG5AwFMQWj7qYAq5b-15" style="edgeStyle=orthogonalEdgeStyle;rounded=0;orthogonalLoop=1;jettySize=auto;html=1;entryX=0;entryY=0.5;entryDx=0;entryDy=0;startArrow=classic;startFill=1;" edge="1" parent="1" source="bKxKG5AwFMQWj7qYAq5b-2" target="bKxKG5AwFMQWj7qYAq5b-13">
          <mxGeometry relative="1" as="geometry" />
        </mxCell>
        <mxCell id="bKxKG5AwFMQWj7qYAq5b-2" value="Server (container)" style="ellipse;whiteSpace=wrap;html=1;" vertex="1" parent="1">
          <mxGeometry x="640" y="120" width="120" height="120" as="geometry" />
        </mxCell>
        <mxCell id="bKxKG5AwFMQWj7qYAq5b-3" value="Svelte&lt;div&gt;Tailwind (CSS)&lt;/div&gt;" style="text;html=1;align=center;verticalAlign=middle;resizable=0;points=[];autosize=1;strokeColor=none;fillColor=none;" vertex="1" parent="1">
          <mxGeometry x="90" y="243" width="100" height="40" as="geometry" />
        </mxCell>
        <mxCell id="bKxKG5AwFMQWj7qYAq5b-4" value="Express.js" style="text;html=1;align=center;verticalAlign=middle;whiteSpace=wrap;rounded=0;" vertex="1" parent="1">
          <mxGeometry x="670" y="248" width="60" height="30" as="geometry" />
        </mxCell>
        <mxCell id="bKxKG5AwFMQWj7qYAq5b-17" style="edgeStyle=orthogonalEdgeStyle;rounded=0;orthogonalLoop=1;jettySize=auto;html=1;dashed=1;" edge="1" parent="1">
          <mxGeometry relative="1" as="geometry">
            <mxPoint x="280" y="190" as="targetPoint" />
            <mxPoint x="280" y="248" as="sourcePoint" />
          </mxGeometry>
        </mxCell>
        <mxCell id="bKxKG5AwFMQWj7qYAq5b-7" value="Socket.io" style="text;html=1;align=center;verticalAlign=middle;resizable=0;points=[];autosize=1;strokeColor=none;fillColor=none;" vertex="1" parent="1">
          <mxGeometry x="247" y="248" width="70" height="30" as="geometry" />
        </mxCell>
        <mxCell id="bKxKG5AwFMQWj7qYAq5b-16" style="edgeStyle=orthogonalEdgeStyle;rounded=0;orthogonalLoop=1;jettySize=auto;html=1;exitX=0.96;exitY=0.7;exitDx=0;exitDy=0;exitPerimeter=0;" edge="1" parent="1" source="bKxKG5AwFMQWj7qYAq5b-10" target="bKxKG5AwFMQWj7qYAq5b-13">
          <mxGeometry relative="1" as="geometry" />
        </mxCell>
        <mxCell id="bKxKG5AwFMQWj7qYAq5b-18" style="edgeStyle=orthogonalEdgeStyle;rounded=0;orthogonalLoop=1;jettySize=auto;html=1;exitX=0.8;exitY=0.8;exitDx=0;exitDy=0;exitPerimeter=0;" edge="1" parent="1" source="bKxKG5AwFMQWj7qYAq5b-10" target="bKxKG5AwFMQWj7qYAq5b-2">
          <mxGeometry relative="1" as="geometry">
            <Array as="points">
              <mxPoint x="459" y="60" />
              <mxPoint x="700" y="60" />
            </Array>
          </mxGeometry>
        </mxCell>
        <mxCell id="bKxKG5AwFMQWj7qYAq5b-28" style="edgeStyle=orthogonalEdgeStyle;rounded=0;orthogonalLoop=1;jettySize=auto;html=1;entryX=0.5;entryY=0;entryDx=0;entryDy=0;exitX=0.55;exitY=0.95;exitDx=0;exitDy=0;exitPerimeter=0;" edge="1" parent="1" source="bKxKG5AwFMQWj7qYAq5b-10" target="bKxKG5AwFMQWj7qYAq5b-19">
          <mxGeometry relative="1" as="geometry" />
        </mxCell>
        <mxCell id="bKxKG5AwFMQWj7qYAq5b-10" value="Docker compose (orchestration)" style="ellipse;shape=cloud;whiteSpace=wrap;html=1;" vertex="1" parent="1">
          <mxGeometry x="355" y="-60" width="130" height="90" as="geometry" />
        </mxCell>
        <mxCell id="bKxKG5AwFMQWj7qYAq5b-13" value="Database (container)" style="ellipse;whiteSpace=wrap;html=1;" vertex="1" parent="1">
          <mxGeometry x="920" y="120" width="120" height="120" as="geometry" />
        </mxCell>
        <mxCell id="bKxKG5AwFMQWj7qYAq5b-14" value="Redis" style="text;html=1;align=center;verticalAlign=middle;whiteSpace=wrap;rounded=0;" vertex="1" parent="1">
          <mxGeometry x="950" y="249" width="60" height="30" as="geometry" />
        </mxCell>
        <mxCell id="bKxKG5AwFMQWj7qYAq5b-19" value="Loadbalancer (container)" style="ellipse;whiteSpace=wrap;html=1;" vertex="1" parent="1">
          <mxGeometry x="360" y="120" width="120" height="120" as="geometry" />
        </mxCell>
        <mxCell id="bKxKG5AwFMQWj7qYAq5b-23" style="edgeStyle=orthogonalEdgeStyle;rounded=0;orthogonalLoop=1;jettySize=auto;html=1;startArrow=classic;startFill=1;entryX=0;entryY=0.5;entryDx=0;entryDy=0;" edge="1" parent="1">
          <mxGeometry relative="1" as="geometry">
            <mxPoint x="480" y="180" as="sourcePoint" />
            <mxPoint x="640" y="180" as="targetPoint" />
          </mxGeometry>
        </mxCell>
        <mxCell id="bKxKG5AwFMQWj7qYAq5b-24" value="Sockets" style="edgeLabel;html=1;align=center;verticalAlign=middle;resizable=0;points=[];" vertex="1" connectable="0" parent="bKxKG5AwFMQWj7qYAq5b-23">
          <mxGeometry x="0.0167" y="-2" relative="1" as="geometry">
            <mxPoint as="offset" />
          </mxGeometry>
        </mxCell>
        <mxCell id="bKxKG5AwFMQWj7qYAq5b-25" style="edgeStyle=orthogonalEdgeStyle;rounded=0;orthogonalLoop=1;jettySize=auto;html=1;dashed=1;" edge="1" parent="1" source="bKxKG5AwFMQWj7qYAq5b-26">
          <mxGeometry relative="1" as="geometry">
            <mxPoint x="565" y="190" as="targetPoint" />
          </mxGeometry>
        </mxCell>
        <mxCell id="bKxKG5AwFMQWj7qYAq5b-26" value="Socket.io" style="text;html=1;align=center;verticalAlign=middle;resizable=0;points=[];autosize=1;strokeColor=none;fillColor=none;" vertex="1" parent="1">
          <mxGeometry x="530" y="248" width="70" height="30" as="geometry" />
        </mxCell>
        <mxCell id="bKxKG5AwFMQWj7qYAq5b-27" value="NGINX" style="text;html=1;align=center;verticalAlign=middle;whiteSpace=wrap;rounded=0;" vertex="1" parent="1">
          <mxGeometry x="390" y="248" width="60" height="30" as="geometry" />
        </mxCell>
        <mxCell id="bKxKG5AwFMQWj7qYAq5b-29" value="Server (container)" style="ellipse;whiteSpace=wrap;html=1;" vertex="1" parent="1">
          <mxGeometry x="760" y="440" width="120" height="120" as="geometry" />
        </mxCell>
        <mxCell id="bKxKG5AwFMQWj7qYAq5b-30" value="Client (browser)" style="ellipse;whiteSpace=wrap;html=1;" vertex="1" parent="1">
          <mxGeometry x="480" y="440" width="120" height="120" as="geometry" />
        </mxCell>
        <mxCell id="bKxKG5AwFMQWj7qYAq5b-33" value="&lt;font style=&quot;font-size: 32px;&quot;&gt;Finished project&lt;/font&gt;" style="text;html=1;align=center;verticalAlign=middle;whiteSpace=wrap;rounded=0;" vertex="1" parent="1">
          <mxGeometry x="290" y="-140" width="290" height="60" as="geometry" />
        </mxCell>
        <mxCell id="bKxKG5AwFMQWj7qYAq5b-34" value="&lt;font style=&quot;font-size: 32px;&quot;&gt;Basic setup&lt;/font&gt;" style="text;html=1;align=center;verticalAlign=middle;whiteSpace=wrap;rounded=0;" vertex="1" parent="1">
          <mxGeometry x="567" y="370" width="230" height="60" as="geometry" />
        </mxCell>
        <mxCell id="bKxKG5AwFMQWj7qYAq5b-35" style="edgeStyle=orthogonalEdgeStyle;rounded=0;orthogonalLoop=1;jettySize=auto;html=1;startArrow=classic;startFill=1;entryX=0;entryY=0.5;entryDx=0;entryDy=0;" edge="1" parent="1">
          <mxGeometry relative="1" as="geometry">
            <mxPoint x="600" y="502.71" as="sourcePoint" />
            <mxPoint x="760" y="502.71" as="targetPoint" />
          </mxGeometry>
        </mxCell>
        <mxCell id="bKxKG5AwFMQWj7qYAq5b-36" value="Sockets" style="edgeLabel;html=1;align=center;verticalAlign=middle;resizable=0;points=[];" vertex="1" connectable="0" parent="bKxKG5AwFMQWj7qYAq5b-35">
          <mxGeometry x="0.0167" y="-2" relative="1" as="geometry">
            <mxPoint x="-1" y="-2" as="offset" />
          </mxGeometry>
        </mxCell>
        <mxCell id="bKxKG5AwFMQWj7qYAq5b-37" style="edgeStyle=orthogonalEdgeStyle;rounded=0;orthogonalLoop=1;jettySize=auto;html=1;dashed=1;" edge="1" parent="1">
          <mxGeometry relative="1" as="geometry">
            <mxPoint x="680" y="510" as="targetPoint" />
            <mxPoint x="680" y="568" as="sourcePoint" />
          </mxGeometry>
        </mxCell>
        <mxCell id="bKxKG5AwFMQWj7qYAq5b-38" value="Socket.io" style="text;html=1;align=center;verticalAlign=middle;resizable=0;points=[];autosize=1;strokeColor=none;fillColor=none;" vertex="1" parent="1">
          <mxGeometry x="647" y="568" width="70" height="30" as="geometry" />
        </mxCell>
      </root>
    </mxGraphModel>
  </diagram>
</mxfile>
